<?xml version="1.0" encoding="UTF-8" ?>
<svg version="1.1" width="64" height="16" xmlns="http://www.w3.org/2000/svg" shape-rendering="crispEdges">
<rect x="2" y="0" width="60" height="1" fill="#572A15" />
<rect x="1" y="1" width="1" height="1" fill="#572A15" />
<rect x="2" y="1" width="60" height="1" fill="#E6A15C" />
<rect x="62" y="1" width="1" height="1" fill="#572A15" />
<rect x="0" y="2" width="1" height="14" fill="#572A15" />
<rect x="1" y="2" width="1" height="13" fill="#B35324" />
<rect x="2" y="2" width="60" height="1" fill="#CC7B3D" />
<rect x="62" y="2" width="1" height="7" fill="#E6A15C" />
<rect x="63" y="2" width="1" height="14" fill="#572A15" />
<rect x="2" y="3" width="1" height="9" fill="#BF6030" />
<rect x="3" y="3" width="3" height="1" fill="#CC7B3D" />
<rect x="6" y="3" width="29" height="1" fill="#E6A15C" />
<rect x="35" y="3" width="27" height="1" fill="#CC7B3D" />
<rect x="3" y="4" width="2" height="1" fill="#CC7B3D" />
<rect x="5" y="4" width="1" height="1" fill="#B35324" />
<rect x="6" y="4" width="2" height="1" fill="#CC7B3D" />
<rect x="8" y="4" width="5" height="1" fill="#572A15" />
<rect x="13" y="4" width="1" height="7" fill="#CC7B3D" />
<rect x="14" y="4" width="2" height="5" fill="#572A15" />
<rect x="16" y="4" width="2" height="2" fill="#CC7B3D" />
<rect x="18" y="4" width="2" height="5" fill="#572A15" />
<rect x="20" y="4" width="2" height="1" fill="#CC7B3D" />
<rect x="22" y="4" width="4" height="1" fill="#572A15" />
<rect x="26" y="4" width="3" height="1" fill="#CC7B3D" />
<rect x="29" y="4" width="4" height="1" fill="#572A15" />
<rect x="33" y="4" width="2" height="1" fill="#CC7B3D" />
<rect x="35" y="4" width="1" height="1" fill="#E6A15C" />
<rect x="36" y="4" width="26" height="1" fill="#CC7B3D" />
<rect x="3" y="5" width="1" height="7" fill="#CC7B3D" />
<rect x="4" y="5" width="1" height="5" fill="#B35324" />
<rect x="5" y="5" width="2" height="5" fill="#CC7B3D" />
<rect x="7" y="5" width="3" height="2" fill="#572A15" />
<rect x="10" y="5" width="3" height="1" fill="#BF6030" />
<rect x="20" y="5" width="1" height="6" fill="#CC7B3D" />
<rect x="21" y="5" width="2" height="3" fill="#572A15" />
<rect x="23" y="5" width="2" height="1" fill="#BF6030" />
<rect x="25" y="5" width="2" height="3" fill="#572A15" />
<rect x="27" y="5" width="1" height="6" fill="#CC7B3D" />
<rect x="28" y="5" width="2" height="4" fill="#572A15" />
<rect x="30" y="5" width="2" height="1" fill="#BF6030" />
<rect x="32" y="5" width="2" height="2" fill="#572A15" />
<rect x="34" y="5" width="2" height="5" fill="#CC7B3D" />
<rect x="36" y="5" width="1" height="5" fill="#E6A15C" />
<rect x="37" y="5" width="25" height="7" fill="#CC7B3D" />
<rect x="10" y="6" width="3" height="2" fill="#572A15" />
<rect x="16" y="6" width="2" height="2" fill="#572A15" />
<rect x="23" y="6" width="2" height="1" fill="#CC7B3D" />
<rect x="30" y="6" width="2" height="2" fill="#572A15" />
<rect x="7" y="7" width="3" height="1" fill="#BF6030" />
<rect x="23" y="7" width="2" height="2" fill="#572A15" />
<rect x="32" y="7" width="1" height="1" fill="#572A15" />
<rect x="33" y="7" width="1" height="1" fill="#BF6030" />
<rect x="7" y="8" width="5" height="1" fill="#572A15" />
<rect x="12" y="8" width="1" height="1" fill="#BF6030" />
<rect x="16" y="8" width="2" height="1" fill="#BF6030" />
<rect x="21" y="8" width="1" height="1" fill="#BF6030" />
<rect x="22" y="8" width="1" height="1" fill="#572A15" />
<rect x="25" y="8" width="1" height="1" fill="#572A15" />
<rect x="26" y="8" width="1" height="1" fill="#BF6030" />
<rect x="30" y="8" width="3" height="1" fill="#BF6030" />
<rect x="33" y="8" width="1" height="3" fill="#CC7B3D" />
<rect x="7" y="9" width="5" height="1" fill="#BF6030" />
<rect x="12" y="9" width="1" height="2" fill="#CC7B3D" />
<rect x="14" y="9" width="2" height="1" fill="#BF6030" />
<rect x="16" y="9" width="2" height="2" fill="#CC7B3D" />
<rect x="18" y="9" width="2" height="1" fill="#BF6030" />
<rect x="21" y="9" width="1" height="2" fill="#CC7B3D" />
<rect x="22" y="9" width="4" height="1" fill="#BF6030" />
<rect x="26" y="9" width="1" height="2" fill="#CC7B3D" />
<rect x="28" y="9" width="2" height="1" fill="#BF6030" />
<rect x="30" y="9" width="3" height="2" fill="#CC7B3D" />
<rect x="62" y="9" width="1" height="2" fill="#CC7B3D" />
<rect x="4" y="10" width="1" height="3" fill="#CC7B3D" />
<rect x="5" y="10" width="1" height="1" fill="#B35324" />
<rect x="6" y="10" width="6" height="1" fill="#CC7B3D" />
<rect x="14" y="10" width="2" height="1" fill="#CC7B3D" />
<rect x="18" y="10" width="2" height="1" fill="#CC7B3D" />
<rect x="22" y="10" width="4" height="1" fill="#CC7B3D" />
<rect x="28" y="10" width="2" height="1" fill="#CC7B3D" />
<rect x="34" y="10" width="1" height="1" fill="#CC7B3D" />
<rect x="35" y="10" width="1" height="1" fill="#B35324" />
<rect x="36" y="10" width="1" height="3" fill="#CC7B3D" />
<rect x="5" y="11" width="1" height="2" fill="#CC7B3D" />
<rect x="6" y="11" width="29" height="1" fill="#B35324" />
<rect x="35" y="11" width="1" height="2" fill="#CC7B3D" />
<rect x="62" y="11" width="1" height="1" fill="#BF6030" />
<rect x="2" y="12" width="1" height="3" fill="#B35324" />
<rect x="3" y="12" width="1" height="1" fill="#BF6030" />
<rect x="6" y="12" width="29" height="1" fill="#CC7B3D" />
<rect x="37" y="12" width="24" height="1" fill="#CC7B3D" />
<rect x="61" y="12" width="1" height="1" fill="#BF6030" />
<rect x="62" y="12" width="1" height="3" fill="#B35324" />
<rect x="3" y="13" width="1" height="2" fill="#B35324" />
<rect x="4" y="13" width="57" height="1" fill="#BF6030" />
<rect x="61" y="13" width="1" height="2" fill="#B35324" />
<rect x="4" y="14" width="57" height="1" fill="#B35324" />
<rect x="1" y="15" width="62" height="1" fill="#572A15" />
</svg>