<?xml version="1.0" encoding="UTF-8" ?>
<svg version="1.1" width="64" height="32" xmlns="http://www.w3.org/2000/svg" shape-rendering="crispEdges">
<rect x="0" y="0" width="64" height="1" fill="#572A15" />
<rect x="0" y="1" width="1" height="19" fill="#572A15" />
<rect x="1" y="1" width="62" height="1" fill="#E6A15C" />
<rect x="63" y="1" width="1" height="19" fill="#572A15" />
<rect x="1" y="2" width="1" height="1" fill="#E6A15C" />
<rect x="2" y="2" width="60" height="1" fill="#CC7B3D" />
<rect x="62" y="2" width="1" height="18" fill="#E6A15C" />
<rect x="1" y="3" width="3" height="1" fill="#CC7B3D" />
<rect x="4" y="3" width="29" height="1" fill="#E6A15C" />
<rect x="33" y="3" width="29" height="1" fill="#CC7B3D" />
<rect x="1" y="4" width="2" height="1" fill="#CC7B3D" />
<rect x="3" y="4" width="1" height="1" fill="#B35324" />
<rect x="4" y="4" width="1" height="1" fill="#CC7B3D" />
<rect x="5" y="4" width="2" height="3" fill="#572A15" />
<rect x="7" y="4" width="1" height="1" fill="#CC7B3D" />
<rect x="8" y="4" width="2" height="3" fill="#572A15" />
<rect x="10" y="4" width="3" height="1" fill="#CC7B3D" />
<rect x="13" y="4" width="5" height="1" fill="#572A15" />
<rect x="18" y="4" width="2" height="1" fill="#CC7B3D" />
<rect x="20" y="4" width="2" height="5" fill="#572A15" />
<rect x="22" y="4" width="2" height="1" fill="#CC7B3D" />
<rect x="24" y="4" width="2" height="5" fill="#572A15" />
<rect x="26" y="4" width="1" height="7" fill="#CC7B3D" />
<rect x="27" y="4" width="2" height="4" fill="#572A15" />
<rect x="29" y="4" width="2" height="3" fill="#CC7B3D" />
<rect x="31" y="4" width="2" height="4" fill="#572A15" />
<rect x="33" y="4" width="1" height="1" fill="#E6A15C" />
<rect x="34" y="4" width="28" height="1" fill="#CC7B3D" />
<rect x="1" y="5" width="1" height="10" fill="#CC7B3D" />
<rect x="2" y="5" width="1" height="5" fill="#B35324" />
<rect x="3" y="5" width="1" height="5" fill="#CC7B3D" />
<rect x="4" y="5" width="1" height="4" fill="#572A15" />
<rect x="7" y="5" width="1" height="3" fill="#572A15" />
<rect x="10" y="5" width="1" height="4" fill="#572A15" />
<rect x="11" y="5" width="1" height="6" fill="#CC7B3D" />
<rect x="12" y="5" width="3" height="3" fill="#572A15" />
<rect x="15" y="5" width="1" height="1" fill="#BF6030" />
<rect x="16" y="5" width="3" height="2" fill="#572A15" />
<rect x="19" y="5" width="1" height="6" fill="#CC7B3D" />
<rect x="22" y="5" width="1" height="2" fill="#572A15" />
<rect x="23" y="5" width="1" height="1" fill="#CC7B3D" />
<rect x="33" y="5" width="1" height="5" fill="#CC7B3D" />
<rect x="34" y="5" width="1" height="5" fill="#E6A15C" />
<rect x="35" y="5" width="27" height="8" fill="#CC7B3D" />
<rect x="15" y="6" width="1" height="1" fill="#572A15" />
<rect x="23" y="6" width="1" height="2" fill="#572A15" />
<rect x="5" y="7" width="1" height="2" fill="#572A15" />
<rect x="6" y="7" width="1" height="1" fill="#BF6030" />
<rect x="8" y="7" width="1" height="1" fill="#BF6030" />
<rect x="9" y="7" width="1" height="2" fill="#572A15" />
<rect x="15" y="7" width="4" height="1" fill="#BF6030" />
<rect x="22" y="7" width="1" height="1" fill="#BF6030" />
<rect x="29" y="7" width="2" height="2" fill="#572A15" />
<rect x="6" y="8" width="1" height="3" fill="#CC7B3D" />
<rect x="7" y="8" width="1" height="1" fill="#BF6030" />
<rect x="8" y="8" width="1" height="3" fill="#CC7B3D" />
<rect x="12" y="8" width="1" height="1" fill="#BF6030" />
<rect x="13" y="8" width="5" height="1" fill="#572A15" />
<rect x="18" y="8" width="1" height="3" fill="#CC7B3D" />
<rect x="22" y="8" width="1" height="3" fill="#CC7B3D" />
<rect x="23" y="8" width="1" height="1" fill="#BF6030" />
<rect x="27" y="8" width="1" height="1" fill="#BF6030" />
<rect x="28" y="8" width="1" height="1" fill="#572A15" />
<rect x="31" y="8" width="1" height="1" fill="#572A15" />
<rect x="32" y="8" width="1" height="1" fill="#BF6030" />
<rect x="4" y="9" width="2" height="1" fill="#BF6030" />
<rect x="7" y="9" width="1" height="2" fill="#CC7B3D" />
<rect x="9" y="9" width="2" height="1" fill="#BF6030" />
<rect x="12" y="9" width="1" height="2" fill="#CC7B3D" />
<rect x="13" y="9" width="5" height="1" fill="#BF6030" />
<rect x="20" y="9" width="2" height="1" fill="#BF6030" />
<rect x="23" y="9" width="1" height="2" fill="#CC7B3D" />
<rect x="24" y="9" width="2" height="1" fill="#BF6030" />
<rect x="27" y="9" width="1" height="2" fill="#CC7B3D" />
<rect x="28" y="9" width="4" height="1" fill="#BF6030" />
<rect x="32" y="9" width="1" height="2" fill="#CC7B3D" />
<rect x="2" y="10" width="1" height="4" fill="#CC7B3D" />
<rect x="3" y="10" width="1" height="1" fill="#B35324" />
<rect x="4" y="10" width="2" height="1" fill="#CC7B3D" />
<rect x="9" y="10" width="2" height="1" fill="#CC7B3D" />
<rect x="13" y="10" width="5" height="1" fill="#CC7B3D" />
<rect x="20" y="10" width="2" height="1" fill="#CC7B3D" />
<rect x="24" y="10" width="2" height="1" fill="#CC7B3D" />
<rect x="28" y="10" width="4" height="1" fill="#CC7B3D" />
<rect x="33" y="10" width="1" height="1" fill="#B35324" />
<rect x="34" y="10" width="1" height="3" fill="#CC7B3D" />
<rect x="3" y="11" width="1" height="2" fill="#CC7B3D" />
<rect x="4" y="11" width="29" height="1" fill="#B35324" />
<rect x="33" y="11" width="1" height="2" fill="#CC7B3D" />
<rect x="4" y="12" width="29" height="1" fill="#CC7B3D" />
<rect x="3" y="13" width="57" height="1" fill="#59504C" />
<rect x="60" y="13" width="1" height="1" fill="#FFFFFF" />
<rect x="61" y="13" width="1" height="1" fill="#CC7B3D" />
<rect x="2" y="14" width="1" height="1" fill="#59504C" />
<rect x="3" y="14" width="58" height="5" fill="#2B2522" />
<rect x="61" y="14" width="1" height="1" fill="#FFFFFF" />
<rect x="1" y="15" width="1" height="5" fill="#B35324" />
<rect x="2" y="15" width="1" height="3" fill="#2B2522" />
<rect x="61" y="15" width="1" height="3" fill="#2B2522" />
<rect x="2" y="18" width="1" height="1" fill="#1F1917" />
<rect x="61" y="18" width="1" height="1" fill="#1F1917" />
<rect x="2" y="19" width="1" height="2" fill="#B35324" />
<rect x="3" y="19" width="58" height="1" fill="#1F1917" />
<rect x="61" y="19" width="1" height="1" fill="#BF6030" />
<rect x="1" y="20" width="1" height="1" fill="#572A15" />
<rect x="3" y="20" width="59" height="1" fill="#B35324" />
<rect x="62" y="20" width="1" height="1" fill="#572A15" />
<rect x="2" y="21" width="60" height="1" fill="#572A15" />
</svg>